<svg width="354" height="354" viewBox="0 0 354 354" fill="none" xmlns="http://www.w3.org/2000/svg">
<rect width="354" height="354" fill="#F8AF00"/>
<rect width="354" height="354" fill="#F8AF00"/>
<path d="M94.4535 202V157.2H101.302L120.886 189.904H117.302L136.566 157.2H143.414L143.478 202H135.606L135.542 169.552H137.206L120.822 196.88H117.11L100.47 169.552H102.39V202H94.4535ZM176.571 202.64C173.072 202.64 169.851 202.064 166.907 200.912C163.963 199.76 161.403 198.16 159.227 196.112C157.051 194.021 155.365 191.589 154.171 188.816C152.976 186 152.379 182.928 152.379 179.6C152.379 176.272 152.976 173.221 154.171 170.448C155.365 167.632 157.051 165.2 159.227 163.152C161.403 161.061 163.963 159.44 166.907 158.288C169.851 157.136 173.051 156.56 176.507 156.56C180.005 156.56 183.205 157.136 186.107 158.288C189.051 159.44 191.611 161.061 193.787 163.152C195.963 165.2 197.648 167.632 198.843 170.448C200.037 173.221 200.635 176.272 200.635 179.6C200.635 182.928 200.037 186 198.843 188.816C197.648 191.632 195.963 194.064 193.787 196.112C191.611 198.16 189.051 199.76 186.107 200.912C183.205 202.064 180.027 202.64 176.571 202.64ZM176.507 195.344C178.768 195.344 180.859 194.96 182.779 194.192C184.699 193.424 186.363 192.336 187.771 190.928C189.179 189.477 190.267 187.813 191.035 185.936C191.845 184.016 192.251 181.904 192.251 179.6C192.251 177.296 191.845 175.205 191.035 173.328C190.267 171.408 189.179 169.744 187.771 168.336C186.363 166.885 184.699 165.776 182.779 165.008C180.859 164.24 178.768 163.856 176.507 163.856C174.245 163.856 172.155 164.24 170.235 165.008C168.357 165.776 166.693 166.885 165.243 168.336C163.835 169.744 162.725 171.408 161.915 173.328C161.147 175.205 160.763 177.296 160.763 179.6C160.763 181.861 161.147 183.952 161.915 185.872C162.725 187.792 163.835 189.477 165.243 190.928C166.651 192.336 168.315 193.424 170.235 194.192C172.155 194.96 174.245 195.344 176.507 195.344ZM209.454 202V157.2H230.446C235.822 157.2 239.918 158.267 242.734 160.4C245.55 162.491 246.958 165.307 246.958 168.848C246.958 171.237 246.403 173.285 245.294 174.992C244.184 176.656 242.691 177.957 240.814 178.896C238.979 179.792 236.974 180.24 234.798 180.24L235.95 177.936C238.467 177.936 240.728 178.405 242.734 179.344C244.739 180.24 246.318 181.563 247.47 183.312C248.664 185.061 249.262 187.237 249.262 189.84C249.262 193.68 247.79 196.667 244.846 198.8C241.902 200.933 237.528 202 231.726 202H209.454ZM217.774 195.472H231.214C234.328 195.472 236.718 194.96 238.382 193.936C240.046 192.912 240.878 191.269 240.878 189.008C240.878 186.789 240.046 185.168 238.382 184.144C236.718 183.077 234.328 182.544 231.214 182.544H217.134V176.08H229.55C232.451 176.08 234.67 175.568 236.206 174.544C237.784 173.52 238.574 171.984 238.574 169.936C238.574 167.845 237.784 166.288 236.206 165.264C234.67 164.24 232.451 163.728 229.55 163.728H217.774V195.472ZM258.141 202V157.2H266.461V202H258.141Z" fill="white"/>
<path d="M206.456 215.928H214.832V218.568H206.456V215.928ZM206.72 225H203.6V208.2H215.864V210.816H206.72V225ZM226.105 225.24C223.801 225.24 221.993 224.592 220.681 223.296C219.385 222 218.737 220.128 218.737 217.68V208.2H221.857V217.56C221.857 219.288 222.225 220.544 222.961 221.328C223.713 222.112 224.769 222.504 226.129 222.504C227.489 222.504 228.537 222.112 229.273 221.328C230.009 220.544 230.377 219.288 230.377 217.56V208.2H233.449V217.68C233.449 220.128 232.793 222 231.481 223.296C230.185 224.592 228.393 225.24 226.105 225.24ZM237.819 225V208.2H244.731C246.219 208.2 247.491 208.44 248.547 208.92C249.619 209.4 250.443 210.088 251.019 210.984C251.595 211.88 251.883 212.944 251.883 214.176C251.883 215.408 251.595 216.472 251.019 217.368C250.443 218.248 249.619 218.928 248.547 219.408C247.491 219.872 246.219 220.104 244.731 220.104H239.547L240.939 218.688V225H237.819ZM248.811 225L244.563 218.904H247.898L252.171 225H248.811ZM240.939 219.024L239.547 217.536H244.587C245.963 217.536 246.995 217.24 247.682 216.648C248.387 216.056 248.739 215.232 248.739 214.176C248.739 213.104 248.387 212.28 247.682 211.704C246.995 211.128 245.963 210.84 244.587 210.84H239.547L240.939 209.304V219.024ZM263.221 225.24C261.909 225.24 260.701 225.032 259.597 224.616C258.509 224.184 257.557 223.584 256.741 222.816C255.925 222.032 255.293 221.112 254.845 220.056C254.397 219 254.173 217.848 254.173 216.6C254.173 215.352 254.397 214.2 254.845 213.144C255.293 212.088 255.925 211.176 256.741 210.408C257.573 209.624 258.541 209.024 259.645 208.608C260.749 208.176 261.957 207.96 263.269 207.96C264.693 207.96 265.973 208.192 267.109 208.656C268.261 209.12 269.229 209.8 270.013 210.696L268.045 212.616C267.389 211.96 266.677 211.48 265.909 211.176C265.157 210.856 264.325 210.696 263.413 210.696C262.533 210.696 261.717 210.84 260.965 211.128C260.213 211.416 259.565 211.824 259.021 212.352C258.477 212.88 258.053 213.504 257.749 214.224C257.461 214.944 257.317 215.736 257.317 216.6C257.317 217.448 257.461 218.232 257.749 218.952C258.053 219.672 258.477 220.304 259.021 220.848C259.565 221.376 260.205 221.784 260.941 222.072C261.677 222.36 262.493 222.504 263.389 222.504C264.221 222.504 265.021 222.376 265.789 222.12C266.573 221.848 267.317 221.4 268.021 220.776L269.797 223.104C268.917 223.808 267.893 224.344 266.725 224.712C265.573 225.064 264.405 225.24 263.221 225.24ZM266.845 222.696V216.408H269.797V223.104L266.845 222.696Z" fill="#1E1E1E"/>
<path fill-rule="evenodd" clip-rule="evenodd" d="M177.088 155C190.733 155 201.794 166.061 201.794 179.705C201.794 192.556 191.982 203.116 179.441 204.301V230.294C179.441 231.593 178.387 232.647 177.088 232.647C175.788 232.647 174.735 231.593 174.735 230.294V204.301C162.194 203.116 152.382 192.556 152.382 179.705C152.382 166.061 163.443 155 177.088 155Z" fill="#1E1E1E"/>
<path d="M185.323 179.706C185.323 175.157 181.636 171.47 177.088 171.47C172.54 171.47 168.853 175.157 168.853 179.706C168.853 184.254 172.54 187.941 177.088 187.941C181.636 187.941 185.323 184.254 185.323 179.706Z" fill="white"/>
<path opacity="0.3" d="M177.088 235C180.337 235 182.971 233.683 182.971 232.059C182.971 230.434 180.337 229.118 177.088 229.118C173.839 229.118 171.206 230.434 171.206 232.059C171.206 233.683 173.839 235 177.088 235Z" fill="#1E1E1E"/>
</svg>
