<svg version="1.2" xmlns="http://www.w3.org/2000/svg" viewBox="0 0 187 93" width="187" height="93">
	<style>
		.s0 { fill: #ffffff } 
		.s1 { fill: #d6d6d6 } 
		.s2 { fill: #1e1e1e } 
		.s3 { opacity: .3;fill: #1e1e1e } 
	</style>
	<path class="s0" d="m13 53.52v-40.94h6.26l17.89 29.89h-3.27l17.6-29.89h6.26l0.06 40.94h-7.19l-0.06-29.65h1.52l-14.97 24.98h-3.4l-15.2-24.98h1.75v29.65zm75.04 0.59q-4.79 0-8.83-1.58-4.03-1.58-7.02-4.39-2.98-2.86-4.62-6.66-1.63-3.86-1.63-8.43 0-4.56 1.63-8.36 1.64-3.86 4.62-6.67 2.99-2.86 7.02-4.44 4.04-1.58 8.78-1.58 4.79 0 8.77 1.58 4.03 1.58 7.02 4.44 2.98 2.81 4.62 6.67 1.63 3.8 1.63 8.36 0 4.57-1.63 8.43-1.64 3.86-4.62 6.66-2.99 2.81-7.02 4.39-3.98 1.58-8.72 1.58zm-0.05-6.67q3.09 0 5.73-1.05 2.63-1.05 4.56-2.98 1.93-1.99 2.98-4.57 1.11-2.63 1.11-5.79 0-3.15-1.11-5.73-1.05-2.63-2.98-4.56-1.93-1.99-4.56-3.04-2.64-1.05-5.73-1.05-3.1 0-5.74 1.05-2.57 1.05-4.56 3.04-1.93 1.93-3.04 4.56-1.05 2.58-1.05 5.73 0 3.1 1.05 5.74 1.11 2.63 3.04 4.62 1.93 1.93 4.56 2.98 2.64 1.05 5.74 1.05zm30.1 6.08v-40.94h19.19q7.37 0.01 11.23 2.93 3.86 2.87 3.86 7.72 0 3.27-1.52 5.61-1.53 2.28-4.1 3.57-2.51 1.23-5.5 1.23l1.06-2.11q3.45 0 6.2 1.29 2.74 1.23 4.32 3.63 1.64 2.39 1.64 5.96 0 5.27-4.03 8.19-4.04 2.92-11.99 2.92zm7.6-5.96h12.28q4.27 0 6.55-1.4 2.28-1.41 2.28-4.51 0-3.04-2.28-4.44-2.28-1.47-6.55-1.47h-12.87v-5.9h11.35q3.98 0 6.08-1.41 2.17-1.4 2.17-4.21 0-2.86-2.17-4.27-2.1-1.4-6.08-1.4h-10.76zm36.89 5.97v-40.94h7.6v40.94z"/>
	<path class="s1" d="m117.72 78h-3.12v-16.8h12.26v2.62h-9.14zm-0.26-9.08h8.37v2.64h-8.37zm19.64 9.32q-3.45 0-5.42-1.95-1.94-1.94-1.94-5.61v-9.48h3.12v9.36q0 2.59 1.1 3.76 1.13 1.18 3.17 1.18 2.04 0 3.14-1.18 1.11-1.17 1.11-3.76v-9.36h3.07v9.48q0 3.67-1.97 5.61-1.94 1.95-5.38 1.95zm11.72-0.24v-16.8h6.91q2.23 0 3.82 0.72 1.61 0.72 2.47 2.06 0.86 1.34 0.86 3.19 0 1.85-0.86 3.19-0.86 1.32-2.47 2.04-1.59 0.7-3.82 0.7h-5.18l1.39-1.42v6.32zm10.99 0l-4.25-6.1h3.34l4.27 6.1zm-7.87-5.98l-1.39-1.49h5.04q2.06 0 3.09-0.89 1.06-0.88 1.06-2.47 0-1.61-1.06-2.47-1.03-0.86-3.09-0.86h-5.04l1.39-1.54zm22.28 6.22q-1.97 0-3.62-0.63-1.63-0.65-2.86-1.8-1.22-1.17-1.9-2.76-0.67-1.58-0.67-3.45 0-1.88 0.67-3.46 0.68-1.58 1.9-2.74 1.25-1.17 2.9-1.8 1.66-0.64 3.63-0.64 2.14 0 3.84 0.69 1.73 0.7 2.9 2.04l-1.96 1.92q-0.99-0.98-2.14-1.44-1.13-0.48-2.5-0.48-1.32 0-2.45 0.43-1.12 0.44-1.94 1.23-0.82 0.79-1.27 1.87-0.43 1.08-0.43 2.38 0 1.27 0.43 2.35 0.45 1.08 1.27 1.89 0.82 0.8 1.92 1.23 1.11 0.43 2.45 0.43 1.25 0 2.4-0.38 1.17-0.41 2.23-1.35l1.78 2.33q-1.32 1.06-3.07 1.61-1.73 0.53-3.51 0.53zm3.63-2.55v-6.29h2.95v6.7z"/>
	<path fill-rule="evenodd" class="s2" d="m88.09 8c13.64 0 24.7 11.06 24.7 24.71 0 12.85-9.81 23.41-22.35 24.59v25.99c0 1.3-1.05 2.36-2.35 2.36-1.3 0-2.35-1.06-2.35-2.36v-25.99c-12.55-1.18-22.36-11.74-22.36-24.59 0-13.65 11.06-24.71 24.71-24.71z"/>
	<path class="s0" d="m96.32 32.71c0-4.55-3.68-8.24-8.23-8.24-4.55 0-8.24 3.69-8.24 8.24 0 4.54 3.69 8.23 8.24 8.23 4.55 0 8.23-3.69 8.23-8.23z"/>
	<path class="s3" d="m88.09 88c3.25 0 5.88-1.32 5.88-2.94 0-1.63-2.63-2.94-5.88-2.94-3.25 0-5.88 1.31-5.88 2.94 0 1.62 2.63 2.94 5.88 2.94z"/>
</svg>